<svg width="23" height="21" viewBox="0 0 23 21" fill="none" xmlns="http://www.w3.org/2000/svg">
<path fill-rule="evenodd" clip-rule="evenodd" d="M19.729 3.21903C19.2212 2.70446 18.6162 2.29589 17.9492 2.01702C17.2822 1.73816 16.5665 1.59456 15.8435 1.59456C15.1206 1.59456 14.4048 1.73816 13.7378 2.01702C13.0708 2.29589 12.4658 2.70446 11.958 3.21903L11.194 3.98303L10.43 3.21903C9.92071 2.70445 9.31474 2.29559 8.64693 2.01594C7.97912 1.73629 7.26263 1.59136 6.53863 1.5895C5.81463 1.58763 5.0974 1.72885 4.42816 2.00505C3.75891 2.28125 3.15084 2.68698 2.6389 3.19893C2.12695 3.71087 1.72122 4.31894 1.44502 4.98819C1.16882 5.65743 1.0276 6.37466 1.02947 7.09866C1.03134 7.82266 1.17626 8.53915 1.45591 9.20696C1.73556 9.87477 2.14442 10.4807 2.65901 10.99L11.194 19.525L19.729 10.99C20.2436 10.4822 20.6522 9.87725 20.931 9.21024C21.2099 8.54324 21.3535 7.82749 21.3535 7.10453C21.3535 6.38158 21.2099 5.66583 20.931 4.99883C20.6522 4.33182 20.2436 3.72685 19.729 3.21903Z" fill="#9F9F9F" fill-opacity="0.78"/>
<path d="M19.729 3.21903C19.2212 2.70446 18.6162 2.29589 17.9492 2.01702C17.2822 1.73816 16.5665 1.59456 15.8435 1.59456C15.1206 1.59456 14.4048 1.73816 13.7378 2.01702C13.0708 2.29589 12.4658 2.70446 11.958 3.21903L11.194 3.98303L10.43 3.21903C9.92071 2.70445 9.31474 2.29559 8.64693 2.01594C7.97912 1.73629 7.26263 1.59136 6.53863 1.5895C5.81463 1.58763 5.0974 1.72885 4.42816 2.00505C3.75891 2.28125 3.15084 2.68698 2.6389 3.19893C2.12695 3.71087 1.72122 4.31894 1.44502 4.98819C1.16882 5.65743 1.0276 6.37466 1.02947 7.09866C1.03134 7.82266 1.17626 8.53915 1.45591 9.20696C1.73556 9.87477 2.14442 10.4807 2.65901 10.99L11.194 19.525L19.729 10.99C20.2436 10.4822 20.6522 9.87725 20.931 9.21024C21.2099 8.54324 21.3535 7.82749 21.3535 7.10453C21.3535 6.38158 21.2099 5.66583 20.931 4.99883C20.6522 4.33182 20.2436 3.72685 19.729 3.21903" stroke="white" stroke-width="2"/>
</svg>
