<svg width="16" height="17" viewBox="0 0 16 17" fill="none" xmlns="http://www.w3.org/2000/svg">
<path d="M8 8.5C8.96115 8.4661 9.86957 8.05216 10.5258 7.34907C11.182 6.64598 11.5324 5.7112 11.5 4.75C11.5324 3.7888 11.182 2.85402 10.5258 2.15093C9.86957 1.44784 8.96115 1.0339 8 1C7.03885 1.0339 6.13043 1.44784 5.47421 2.15093C4.81799 2.85402 4.46761 3.7888 4.5 4.75C4.46761 5.7112 4.81799 6.64598 5.47421 7.34907C6.13043 8.05216 7.03885 8.4661 8 8.5V8.5ZM8 10.375C5.664 10.375 1 11.631 1 14.125V16H15V14.125C15 11.631 10.336 10.375 8 10.375Z" stroke="#FF0000" stroke-width="2"/>
</svg>
